<svg width="239" height="105" viewBox="0 0 239 105" fill="none" xmlns="http://www.w3.org/2000/svg">
<g filter="url(#filter0_d)">
<path d="M128.49 10.605V35H125.305V23.94H112.88V35H109.695V10.605H112.88V21.315H125.305V10.605H128.49ZM132.738 25.34C132.738 23.38 133.135 21.665 133.928 20.195C134.722 18.7017 135.807 17.5467 137.183 16.73C138.583 15.9133 140.135 15.505 141.838 15.505C143.518 15.505 144.977 15.8667 146.213 16.59C147.45 17.3133 148.372 18.2233 148.978 19.32V15.82H152.198V35H148.978V31.43C148.348 32.55 147.403 33.4833 146.143 34.23C144.907 34.9533 143.46 35.315 141.803 35.315C140.1 35.315 138.56 34.895 137.183 34.055C135.807 33.215 134.722 32.0367 133.928 30.52C133.135 29.0033 132.738 27.2767 132.738 25.34ZM148.978 25.375C148.978 23.9283 148.687 22.6683 148.103 21.595C147.52 20.5217 146.727 19.705 145.723 19.145C144.743 18.5617 143.658 18.27 142.468 18.27C141.278 18.27 140.193 18.55 139.213 19.11C138.233 19.67 137.452 20.4867 136.868 21.56C136.285 22.6333 135.993 23.8933 135.993 25.34C135.993 26.81 136.285 28.0933 136.868 29.19C137.452 30.2633 138.233 31.0917 139.213 31.675C140.193 32.235 141.278 32.515 142.468 32.515C143.658 32.515 144.743 32.235 145.723 31.675C146.727 31.0917 147.52 30.2633 148.103 29.19C148.687 28.0933 148.978 26.8217 148.978 25.375ZM164.721 32.06L170.671 15.82H174.066L166.541 35H162.831L155.306 15.82H158.736L164.721 32.06ZM194.7 24.675C194.7 25.2817 194.665 25.9233 194.595 26.6H179.265C179.382 28.49 180.023 29.9717 181.19 31.045C182.38 32.095 183.815 32.62 185.495 32.62C186.872 32.62 188.015 32.305 188.925 31.675C189.858 31.0217 190.512 30.1583 190.885 29.085H194.315C193.802 30.9283 192.775 32.4333 191.235 33.6C189.695 34.7433 187.782 35.315 185.495 35.315C183.675 35.315 182.042 34.9067 180.595 34.09C179.172 33.2733 178.052 32.1183 177.235 30.625C176.418 29.1083 176.01 27.3583 176.01 25.375C176.01 23.3917 176.407 21.6533 177.2 20.16C177.993 18.6667 179.102 17.5233 180.525 16.73C181.972 15.9133 183.628 15.505 185.495 15.505C187.315 15.505 188.925 15.9017 190.325 16.695C191.725 17.4883 192.798 18.585 193.545 19.985C194.315 21.3617 194.7 22.925 194.7 24.675ZM191.41 24.01C191.41 22.7967 191.142 21.7583 190.605 20.895C190.068 20.0083 189.333 19.3433 188.4 18.9C187.49 18.4333 186.475 18.2 185.355 18.2C183.745 18.2 182.368 18.7133 181.225 19.74C180.105 20.7667 179.463 22.19 179.3 24.01H191.41ZM128.49 40.605V65H125.305V53.94H112.88V65H109.695V40.605H112.88V51.315H125.305V40.605H128.49ZM151.428 54.675C151.428 55.2817 151.393 55.9233 151.323 56.6H135.993C136.11 58.49 136.752 59.9717 137.918 61.045C139.108 62.095 140.543 62.62 142.223 62.62C143.6 62.62 144.743 62.305 145.653 61.675C146.587 61.0217 147.24 60.1583 147.613 59.085H151.043C150.53 60.9283 149.503 62.4333 147.963 63.6C146.423 64.7433 144.51 65.315 142.223 65.315C140.403 65.315 138.77 64.9067 137.323 64.09C135.9 63.2733 134.78 62.1183 133.963 60.625C133.147 59.1083 132.738 57.3583 132.738 55.375C132.738 53.3917 133.135 51.6533 133.928 50.16C134.722 48.6667 135.83 47.5233 137.253 46.73C138.7 45.9133 140.357 45.505 142.223 45.505C144.043 45.505 145.653 45.9017 147.053 46.695C148.453 47.4883 149.527 48.585 150.273 49.985C151.043 51.3617 151.428 52.925 151.428 54.675ZM148.138 54.01C148.138 52.7967 147.87 51.7583 147.333 50.895C146.797 50.0083 146.062 49.3433 145.128 48.9C144.218 48.4333 143.203 48.2 142.083 48.2C140.473 48.2 139.097 48.7133 137.953 49.74C136.833 50.7667 136.192 52.19 136.028 54.01H148.138ZM158.818 48.935C159.378 47.8383 160.171 46.9867 161.198 46.38C162.248 45.7733 163.519 45.47 165.013 45.47V48.76H164.173C160.603 48.76 158.818 50.6967 158.818 54.57V65H155.633V45.82H158.818V48.935ZM121.91 82.435C122.797 82.575 123.602 82.9367 124.325 83.52C125.072 84.1033 125.655 84.8267 126.075 85.69C126.518 86.5533 126.74 87.475 126.74 88.455C126.74 89.6917 126.425 90.8117 125.795 91.815C125.165 92.795 124.243 93.5767 123.03 94.16C121.84 94.72 120.428 95 118.795 95H109.695V70.605H118.445C120.102 70.605 121.513 70.885 122.68 71.445C123.847 71.9817 124.722 72.7167 125.305 73.65C125.888 74.5833 126.18 75.6333 126.18 76.8C126.18 78.2467 125.783 79.4483 124.99 80.405C124.22 81.3383 123.193 82.015 121.91 82.435ZM112.88 81.14H118.235C119.728 81.14 120.883 80.79 121.7 80.09C122.517 79.39 122.925 78.4217 122.925 77.185C122.925 75.9483 122.517 74.98 121.7 74.28C120.883 73.58 119.705 73.23 118.165 73.23H112.88V81.14ZM118.515 92.375C120.102 92.375 121.338 92.0017 122.225 91.255C123.112 90.5083 123.555 89.47 123.555 88.14C123.555 86.7867 123.088 85.725 122.155 84.955C121.222 84.1617 119.973 83.765 118.41 83.765H112.88V92.375H118.515ZM129.97 85.34C129.97 83.38 130.367 81.665 131.16 80.195C131.953 78.7017 133.038 77.5467 134.415 76.73C135.815 75.9133 137.367 75.505 139.07 75.505C140.75 75.505 142.208 75.8667 143.445 76.59C144.682 77.3133 145.603 78.2233 146.21 79.32V75.82H149.43V95H146.21V91.43C145.58 92.55 144.635 93.4833 143.375 94.23C142.138 94.9533 140.692 95.315 139.035 95.315C137.332 95.315 135.792 94.895 134.415 94.055C133.038 93.215 131.953 92.0367 131.16 90.52C130.367 89.0033 129.97 87.2767 129.97 85.34ZM146.21 85.375C146.21 83.9283 145.918 82.6683 145.335 81.595C144.752 80.5217 143.958 79.705 142.955 79.145C141.975 78.5617 140.89 78.27 139.7 78.27C138.51 78.27 137.425 78.55 136.445 79.11C135.465 79.67 134.683 80.4867 134.1 81.56C133.517 82.6333 133.225 83.8933 133.225 85.34C133.225 86.81 133.517 88.0933 134.1 89.19C134.683 90.2633 135.465 91.0917 136.445 91.675C137.425 92.235 138.51 92.515 139.7 92.515C140.89 92.515 141.975 92.235 142.955 91.675C143.958 91.0917 144.752 90.2633 145.335 89.19C145.918 88.0933 146.21 86.8217 146.21 85.375ZM153.622 85.375C153.622 83.3917 154.019 81.665 154.812 80.195C155.606 78.7017 156.702 77.5467 158.102 76.73C159.526 75.9133 161.147 75.505 162.967 75.505C165.324 75.505 167.261 76.0767 168.777 77.22C170.317 78.3633 171.332 79.95 171.822 81.98H168.392C168.066 80.8133 167.424 79.8917 166.467 79.215C165.534 78.5383 164.367 78.2 162.967 78.2C161.147 78.2 159.677 78.83 158.557 80.09C157.437 81.3267 156.877 83.0883 156.877 85.375C156.877 87.685 157.437 89.47 158.557 90.73C159.677 91.99 161.147 92.62 162.967 92.62C164.367 92.62 165.534 92.2933 166.467 91.64C167.401 90.9867 168.042 90.0533 168.392 88.84H171.822C171.309 90.8 170.282 92.375 168.742 93.565C167.202 94.7317 165.277 95.315 162.967 95.315C161.147 95.315 159.526 94.9067 158.102 94.09C156.702 93.2733 155.606 92.1183 154.812 90.625C154.019 89.1317 153.622 87.3817 153.622 85.375ZM186.782 95L179.257 86.53V95H176.072V69.1H179.257V84.325L186.642 75.82H191.087L182.057 85.375L191.122 95H186.782Z" fill="#E8505B"/>
</g>
<g clip-path="url(#clip0)">
<path d="M81.5629 95.5094C83.7872 95.5094 85.5902 93.7062 85.5902 91.4821V59.2911C85.5902 57.0668 83.787 55.2638 81.5629 55.2638C79.3389 55.2638 77.5356 57.067 77.5356 59.2911V91.4821C77.5356 93.7064 79.3389 95.5094 81.5629 95.5094Z" fill="#F8A084"/>
<path d="M71.7692 95.5094C73.9935 95.5094 75.7965 93.7062 75.7965 91.4821V59.2911C75.7965 57.0668 73.9933 55.2638 71.7692 55.2638C69.5451 55.2638 67.7419 57.067 67.7419 59.2911V91.4821C67.7419 93.7064 69.545 95.5094 71.7692 95.5094Z" fill="#F8A084"/>
<path d="M76.6663 24.9112C80.5077 24.9112 83.6219 21.7971 83.6219 17.9556C83.6219 14.1141 80.5077 11 76.6663 11C72.8248 11 69.7107 14.1141 69.7107 17.9556C69.7107 21.7971 72.8248 24.9112 76.6663 24.9112Z" fill="#F8A084"/>
<path d="M79.8854 27.1368L79.9569 28.6435C80.0481 30.5682 78.5122 32.1785 76.5853 32.1785C74.7005 32.1785 73.181 30.6348 73.2106 28.7501L73.236 27.1367H79.8854V27.1368Z" fill="#F8A084"/>
<path d="M92.8917 41.4796C92.8917 41.4796 98.1472 56.0092 98.1886 56.1225C98.8251 57.8634 97.9298 59.7906 96.1891 60.4271C94.4521 61.0623 92.5225 60.1719 91.8845 58.4275C91.8452 58.3202 89.0604 50.7006 86.5769 43.7546L89.2851 41.7274L92.8917 41.4796Z" fill="#F8A084"/>
<path d="M51.689 11.8116C53.3832 11.0595 55.3661 11.823 56.1182 13.5171L62.1765 27.163L63.467 30.1925L62.1765 33.8715C62.1765 33.8715 60.0455 33.8715 59.9995 33.8715C58.6733 33.8715 57.4709 33.1057 56.9323 31.8925L49.9835 16.2406C49.2312 14.5468 49.9949 12.5637 51.689 11.8116Z" fill="#F8A084"/>
<path d="M62.1763 27.1629C67.5754 27.1351 68.9504 27.1288 73.2365 27.1281C73.2363 27.1311 73.2358 27.1338 73.2358 27.1369C73.1554 28.9324 74.8214 30.4616 76.5605 30.4616C78.4244 30.4616 79.8046 28.9381 79.8852 27.1369C79.8854 27.134 79.885 27.1311 79.885 27.1283C80.6857 27.1283 81.5451 27.1285 82.4801 27.1285C86.0723 27.1285 88.6831 29.426 90.2401 33.9569C90.9367 35.9834 92.8915 41.4796 92.8915 41.4796L86.5767 43.7546L90.0331 65.1164C90.231 66.2587 89.3469 67.3014 88.1961 67.3014H65.1362C63.9816 67.3014 63.1009 66.2599 63.2992 65.1164L67.8449 33.8713H62.1764V27.1629H62.1763Z" fill="#E64937"/>
<path d="M23.8308 95.5094C21.6065 95.5094 19.8035 93.7062 19.8035 91.4821V59.2911C19.8035 57.0668 21.6067 55.2638 23.8308 55.2638C26.0548 55.2638 27.8581 57.067 27.8581 59.2911V91.4821C27.8581 93.7064 26.055 95.5094 23.8308 95.5094Z" fill="#FFB69E"/>
<path d="M33.6242 95.5094C31.4 95.5094 29.5969 93.7062 29.5969 91.4821V59.2911C29.5969 57.0668 31.4001 55.2638 33.6242 55.2638C35.8483 55.2638 37.6515 57.067 37.6515 59.2911V91.4821C37.6517 93.7064 35.8485 95.5094 33.6242 95.5094Z" fill="#FFB69E"/>
<path d="M28.7273 24.9112C32.5688 24.9112 35.6829 21.7971 35.6829 17.9556C35.6829 14.1141 32.5688 11 28.7273 11C24.8859 11 21.7717 14.1141 21.7717 17.9556C21.7717 21.7971 24.8859 24.9112 28.7273 24.9112Z" fill="#FFB69E"/>
<path d="M25.5082 27.1368L25.4367 28.6435C25.3454 30.5682 26.8814 32.1785 28.8082 32.1785C30.6931 32.1785 32.2126 30.6348 32.1829 28.7501L32.1576 27.1367H25.5082V27.1368Z" fill="#FFB69E"/>
<path d="M12.5016 41.4796C12.5016 41.4796 7.24619 56.0092 7.20474 56.1225C6.56824 57.8634 7.46359 59.7906 9.20428 60.4271C10.9412 61.0623 12.8709 60.1719 13.5088 58.4275C13.5481 58.3202 16.333 50.7006 18.8164 43.7546L16.1082 41.7274L12.5016 41.4796Z" fill="#FFB69E"/>
<path d="M53.7045 11.8116C52.0103 11.0595 50.0274 11.823 49.2753 13.5171L43.217 27.163L41.9265 30.1925L43.217 33.8715H45.3939C46.7202 33.8715 47.9226 33.1057 48.4612 31.8925L55.41 16.2406C56.1623 14.5468 55.3986 12.5637 53.7045 11.8116Z" fill="#FFB69E"/>
<path d="M43.2172 27.1629C37.8181 27.1351 36.4431 27.1288 32.157 27.1281C32.1572 27.1311 32.1577 27.1338 32.1577 27.1369C32.2381 28.9324 30.5721 30.4616 28.833 30.4616C26.9691 30.4616 25.5889 28.9381 25.5083 27.1369C25.5081 27.134 25.5085 27.1311 25.5085 27.1283C24.7078 27.1283 23.8484 27.1285 22.9134 27.1285C19.3212 27.1285 16.7104 29.426 15.1534 33.9569C14.4568 35.9834 12.502 41.4796 12.502 41.4796L18.8168 43.7546L15.3604 65.1166C15.1625 66.2588 16.0466 67.3016 17.1974 67.3016H40.2573C41.4119 67.3016 42.2926 66.2601 42.0943 65.1166L37.5487 33.8715H43.2172V27.1629Z" fill="#FF6473"/>
</g>
<path d="M1.5 1.5H101.5H201.5V103.5H101.5H1.5V1.5Z" stroke="#E8505B" stroke-width="3"/>
<path d="M102.5 0L102.5 102.5" stroke="#E8505B" stroke-width="3"/>
<defs>
<filter id="filter0_d" x="106.856" y="10.605" width="90.6823" height="90.3874" filterUnits="userSpaceOnUse" color-interpolation-filters="sRGB">
<feFlood flood-opacity="0" result="BackgroundImageFix"/>
<feColorMatrix in="SourceAlpha" type="matrix" values="0 0 0 0 0 0 0 0 0 0 0 0 0 0 0 0 0 0 127 0"/>
<feOffset dy="2.83871"/>
<feGaussianBlur stdDeviation="1.41935"/>
<feColorMatrix type="matrix" values="0 0 0 0 0 0 0 0 0 0 0 0 0 0 0 0 0 0 0.25 0"/>
<feBlend mode="normal" in2="BackgroundImageFix" result="effect1_dropShadow"/>
<feBlend mode="normal" in="SourceGraphic" in2="effect1_dropShadow" result="shape"/>
</filter>
<clipPath id="clip0">
<rect width="91" height="91" fill="white" transform="translate(7 11)"/>
</clipPath>
</defs>
</svg>
